<svg id="Capa_1" enable-background="new 0 0 512 512" height="512" viewBox="0 0 512 512" width="512" xmlns="http://www.w3.org/2000/svg"><g><path d="m497 469v-257h-77v125h-54l-48-48h-56v180h-86.91v-332h16.91v-16.81h160v48.81h30v-48.81h75.13l-89.9-90.19h-175.23v-17h-124v17h-62v90.19h62v16.81h16.91v332h-84.91v30h512v-30zm-142.013-408.774.003.004 29.88 29.96h-59.847zm-42.2-.226-29.287 29.287-29.287-29.287zm-120.787 0h19.787l30.19 30.19h-49.977zm-124 30.19h-32v-30.19h32zm77.09 378.81h-30.18v-69h30.18zm0-99h-30.18v-68h30.18zm0-98h-30.18v-68h30.18zm0-98h-30.18v-37h30.18zm208.91 266h-30v-47h30zm92 0h-30v-47h30z"/></g></svg>