<svg id="Capa_1" enable-background="new 0 0 609.806 609.806" height="512" viewBox="0 0 609.806 609.806" width="512" xmlns="http://www.w3.org/2000/svg"><g fill="#626366"><path clip-rule="evenodd" d="m0 542.548c0 9.906 8.03 17.935 17.935 17.935h573.935c9.905 0 17.935-8.03 17.935-17.935 0-74.931-27.654-107.613-98.645-107.613h-412.515c-70.991 0-98.645 32.682-98.645 107.613zm322.838-403.16c157.219 6.888 251.097 104.726 251.097 241.741 0 9.906-8.03 17.935-17.935 17.935h-502.194c-9.905 0-17.935-8.03-17.935-17.935 0-137.015 93.877-234.853 251.097-241.741v-54.195h-44.831c-4.988 0-8.975-4.053-8.975-9.052v-17.767c0-5.076 4.019-9.052 8.975-9.052h125.533c4.988 0 8.975 4.053 8.975 9.052v17.767c0 5.076-4.019 9.052-8.975 9.052h-44.831v54.195z" fill-rule="evenodd"/></g></svg>